<svg width="88" height="120" viewBox="0 0 88 120" fill="none" xmlns="http://www.w3.org/2000/svg">
<path d="M10.0429 14.012C5.45898 18.9643 5.14607 27.8352 6.52842 35.3165C8.04659 43.6173 11.5785 51.526 16.428 58.2412C26.1951 71.8853 39.9988 79.6509 53.5321 84.994C61.9562 88.3245 70.5078 90.6753 79.118 92.2246C79.9184 92.367 80.5837 91.2982 80.5051 90.461C80.4155 89.3922 79.6274 88.6976 78.827 88.5551C71.5433 87.2196 64.3064 85.2428 57.1164 82.6247C50.5552 80.2025 44.0519 77.3707 37.8133 73.5947C25.7476 66.1496 14.5817 54.4293 10.3885 38.7363C8.41118 31.3619 7.7989 21.7608 12.5317 16.6838C13.0819 16.0425 12.8668 14.7778 12.2732 14.1009C11.4969 13.2459 10.5931 13.3707 10.0429 14.012Z" fill="black"/>
<path d="M62.5872 109.735C68.3948 104.088 74.2023 98.4413 80.0099 92.7944C81.2126 91.6365 83.0102 90.3717 82.4537 88.0386C82.204 86.8632 81.4278 86.0084 80.5599 85.2605C79.6919 84.5126 78.8468 83.836 77.9217 83.1059C74.4155 80.2034 70.8749 77.39 67.3688 74.4875C63.3829 71.2645 59.4542 68.0236 55.4682 64.8006C54.7258 64.2486 53.776 64.6228 53.4659 65.4243C53.1213 66.3149 53.5198 67.3657 54.2623 67.9177C60.7265 73.1884 67.1907 78.4592 73.5749 83.6766C75.208 85.0477 76.8756 86.3298 78.5087 87.7009C78.6914 87.879 79.1023 88.3776 79.3766 88.4488C79.5938 88.5378 79.3422 88.5378 79.4111 88.3597C79.7323 87.7897 79.3428 88.146 79.3428 88.146C79.2856 88.1638 78.7356 88.8051 78.6784 88.8229C78.289 89.1792 77.9568 89.5177 77.5673 89.8739C74.9213 92.4213 72.2981 95.0399 69.5949 97.605C66.5595 100.509 63.5468 103.483 60.5114 106.387C59.8814 106.975 59.6968 107.972 60.2442 108.898C60.906 109.789 62.0145 110.305 62.5872 109.735Z" fill="black"/>
</svg>
