<svg width="26" height="25" viewBox="0 0 26 25" fill="none" xmlns="http://www.w3.org/2000/svg">
<path d="M18.7594 0H6.25313C2.8014 0 0 2.78889 0 6.22811V13.7069V14.9575C0 18.3967 2.8014 21.1856 6.25313 21.1856H8.12906C8.46673 21.1856 8.91696 21.4107 9.12957 21.6858L11.0055 24.1746C11.8309 25.2751 13.1816 25.2751 14.007 24.1746L15.8829 21.6858C16.1206 21.3732 16.4957 21.1856 16.8834 21.1856H18.7594C22.2111 21.1856 25.0125 18.3967 25.0125 14.9575V6.22811C25.0125 2.78889 22.2111 0 18.7594 0ZM7.50375 12.5063C6.8034 12.5063 6.25313 11.9435 6.25313 11.2556C6.25313 10.5678 6.81591 10.005 7.50375 10.005C8.1916 10.005 8.75438 10.5678 8.75438 11.2556C8.75438 11.9435 8.2041 12.5063 7.50375 12.5063ZM12.5063 12.5063C11.8059 12.5063 11.2556 11.9435 11.2556 11.2556C11.2556 10.5678 11.8184 10.005 12.5063 10.005C13.1941 10.005 13.7569 10.5678 13.7569 11.2556C13.7569 11.9435 13.2066 12.5063 12.5063 12.5063ZM17.5088 12.5063C16.8084 12.5063 16.2581 11.9435 16.2581 11.2556C16.2581 10.5678 16.8209 10.005 17.5088 10.005C18.1966 10.005 18.7594 10.5678 18.7594 11.2556C18.7594 11.9435 18.2091 12.5063 17.5088 12.5063Z" fill="white"/>
</svg>
